# Blender 4.3.2
# www.blender.org
o Cube
v -0.065709 -0.119635 0.072270
v -0.065709 1.030488 0.072270
v -0.065709 -0.119635 -0.059148
v -0.065709 1.030488 -0.059148
v 0.065709 -0.119635 0.072270
v 0.065709 1.030488 0.072270
v 0.065709 -0.119635 -0.059148
v 0.065709 1.030488 -0.059148
v -0.094623 0.344705 0.472579
v -0.094623 0.967479 0.472579
v -0.094623 0.344705 -0.463467
v -0.094623 0.967479 -0.463467
v 0.094623 0.344705 0.472579
v 0.094623 0.967479 0.472579
v 0.094623 0.344705 -0.463467
v 0.094623 0.967479 -0.463467
vn -1.0000 -0.0000 -0.0000
vn -0.0000 -0.0000 -1.0000
vn 1.0000 -0.0000 -0.0000
vn -0.0000 -0.0000 1.0000
vn -0.0000 -1.0000 -0.0000
vn -0.0000 1.0000 -0.0000
vt 0.499282 0.599324
vt -0.000811 0.599324
vt -0.000811 0.542181
vt 0.499282 0.542181
vt -0.000811 0.485038
vt 0.499282 0.485038
vt -0.000811 0.485038
vt -0.000811 0.427895
vt 0.499282 0.427895
vt -0.000811 0.370752
vt 0.499282 0.370752
vt -0.000811 0.313609
vt 0.056332 0.313609
vt 0.056332 0.370752
vt 0.113475 0.313609
vt 0.113475 0.370752
vt 0.536571 0.688485
vt 0.536570 0.998119
vt 1.001959 0.998119
vt 1.001959 0.688485
vt 0.691884 0.191117
vt 1.001518 0.191117
vt 1.001518 0.097027
vt 0.691884 0.097027
vt 0.536571 0.378850
vt 0.536571 0.688485
vt 1.001959 0.688485
vt 1.001959 0.378850
vt 1.001518 0.002937
vt 0.691884 0.002937
vt 0.536571 0.284760
vt 0.536571 0.378850
vt 1.001959 0.284760
vt 0.536571 0.190670
vt 1.001959 0.190670
s 0
f 1/1/1 2/2/1 4/3/1 3/4/1
f 3/4/2 4/3/2 8/5/2 7/6/2
f 7/6/3 8/7/3 6/8/3 5/9/3
f 5/9/4 6/8/4 2/10/4 1/11/4
f 3/12/5 7/13/5 5/14/5 1/10/5
f 8/13/6 4/15/6 2/16/6 6/14/6
f 9/17/1 10/18/1 12/19/1 11/20/1
f 11/21/2 12/22/2 16/23/2 15/24/2
f 15/25/3 16/26/3 14/27/3 13/28/3
f 13/24/4 14/23/4 10/29/4 9/30/4
f 11/31/5 15/32/5 13/28/5 9/33/5
f 16/34/6 12/31/6 10/33/6 14/35/6
