# Blender 4.3.2
# www.blender.org
o Plane
v 90.537285 141.788361 -95.295197
v 33.178616 141.788361 -94.846466
v 19.351303 141.788361 -92.102295
v 103.374313 141.788361 -33.588898
v -6.468513 141.788376 111.900848
v -16.303890 141.788376 107.941025
v -12.830313 141.788376 109.151886
v -25.124960 141.788345 -108.167168
v -31.756191 141.788345 -108.926605
v -101.998970 141.788361 91.579544
v -142.822891 141.788361 -27.915525
v -108.917496 141.788345 -116.747459
v -126.410141 141.788361 -95.122787
v -144.313461 141.788361 -32.874470
v -122.361023 141.788345 -115.789665
v -142.329941 141.788361 -57.566505
v -145.262512 141.788361 -40.066742
v -106.757896 141.788361 78.359970
v -104.051590 141.788361 86.896576
v 96.252029 141.788361 -95.608246
v 96.458595 141.788361 -85.704124
v 95.273399 141.788361 -74.201233
v 93.705307 141.788361 -67.354927
v 93.355797 141.788361 -63.449886
v 94.000229 141.788361 -60.442966
v 95.256287 141.788361 -57.907276
v 99.930695 141.788361 -51.097191
v 101.321510 141.788361 -47.931335
v 102.296440 141.788361 -44.197556
v 102.970604 141.788361 -39.880074
v 103.369064 141.788361 -27.669308
v 103.222931 141.788361 -10.909071
v 103.744469 141.788361 -5.739412
v 104.622391 141.788361 -0.775939
v 106.279236 141.788361 5.723167
v 110.372078 141.788361 18.848705
v 112.852928 141.788361 28.498560
v 114.860786 141.788361 40.020954
v 115.760284 141.788361 47.511116
v 116.114319 141.788361 52.710350
v 116.161171 141.788361 58.660408
v 115.745491 141.788361 64.928185
v 113.286797 141.788361 79.852280
v 110.836411 141.788361 89.625374
v 106.813637 141.788376 103.479042
v -99.257767 141.788361 96.429939
v -115.287308 141.788361 25.795523
v -116.722931 141.788361 20.201618
v -118.484314 141.788361 14.937748
v -120.643707 141.788361 9.899757
v -123.144043 141.788361 5.111909
v -126.996887 141.788361 -1.225857
v -138.448090 141.788361 -18.710236
v -140.831863 141.788361 -23.222612
v -136.349564 141.788361 -72.860725
v -129.485916 141.788361 -87.398384
v -124.563087 141.788345 -101.147484
v -98.913277 141.788345 -115.300499
v -74.351685 141.788345 -111.184929
v -65.211609 141.788345 -110.083153
v -53.834789 141.788345 -109.270393
v -44.888386 141.788345 -109.082962
v -12.188527 141.788345 -105.487587
v -5.757587 141.788345 -102.849945
v 3.123512 141.788361 -98.339447
v 9.952188 141.788361 -93.859993
v 13.193466 141.788361 -92.609650
v 15.863556 141.788361 -92.173454
v 66.792587 141.788361 -95.475769
v 80.228523 141.788361 -95.081818
v 96.113785 141.788376 105.016121
v 84.550644 141.788376 107.085571
v 48.250202 141.788376 115.137505
v 24.965719 141.788376 116.321167
v 13.726173 141.788376 116.457489
v 7.822658 141.788376 116.036232
v -0.601290 141.788376 114.043701
v -40.332451 141.788376 105.082985
v -57.330986 141.788361 100.352264
v -64.611053 141.788361 98.614777
v -75.503517 141.788361 96.942444
v -80.873322 141.788361 96.652924
v -85.434723 141.788361 96.694809
v -91.560196 141.788361 97.150200
v -122.288773 141.788330 -117.336174
v -144.992401 141.788361 -36.780067
v -145.124268 141.788361 -44.961582
v 5.392352 141.788361 -96.976143
v -105.502998 141.788361 82.759712
v -144.153015 141.788361 -50.989853
v 98.585617 141.788361 -53.279770
v -111.741386 141.788361 46.760952
v -109.276062 141.788361 65.320656
v 54.561409 141.788376 113.881271
v 69.271202 141.788376 110.213203
v -46.144634 141.788376 103.585419
v -98.115204 141.788361 98.191193
v -1.484310 141.788361 -100.511650
v -83.565086 141.788345 -112.629913
v -123.033630 141.788345 -108.654366
v -8.487474 141.788345 -104.163055
v -107.889740 141.788361 73.423668
v 42.786274 141.788376 115.633904
v 114.970047 141.788361 70.907387
v -69.886436 141.788361 97.646751
v 96.224022 141.788361 -79.852043
v -113.621635 141.788361 34.228363
v -34.467949 141.788376 106.180382
v -28.908195 141.788376 106.770546
v -20.692038 141.788376 107.257744
v -121.155998 141.788345 -117.364365
v -116.386719 141.788345 -117.300323
v 48.934349 141.788361 -95.958778
v 43.183315 141.788361 -95.956451
v -17.361643 141.788345 -106.840080
v -36.747040 141.788345 -109.215034
v 3.398706 141.788376 115.188988
v 24.165493 141.788361 -92.789421
v -134.966019 141.788361 -13.037539
v 38.343281 141.788361 -95.631004
v 103.015633 141.788361 -17.418514
v -139.706039 141.788361 -64.877487
v 90.537308 -67.269981 -95.295166
v 33.178638 -67.269981 -94.846436
v 19.351328 -67.269981 -92.102264
v 103.374336 -67.269974 -33.588863
v -6.468488 -67.269966 111.900879
v -16.303865 -67.269966 107.941055
v -12.830288 -67.269966 109.151917
v -25.124935 -67.269981 -108.167137
v -31.756166 -67.269981 -108.926575
v -101.998947 -67.269966 91.579575
v -142.822861 -67.269974 -27.915489
v -108.917473 -67.269981 -116.747429
v -126.410118 -67.269981 -95.122757
v -144.313431 -67.269974 -32.874435
v -122.361000 -67.269981 -115.789635
v -142.329910 -67.269981 -57.566471
v -145.262482 -67.269974 -40.066708
v -106.757874 -67.269966 78.360001
v -104.051567 -67.269966 86.896606
v 96.252052 -67.269981 -95.608215
v 96.458618 -67.269981 -85.704094
v 95.273422 -67.269981 -74.201202
v 93.705330 -67.269981 -67.354897
v 93.355820 -67.269981 -63.449852
v 94.000252 -67.269981 -60.442932
v 95.256310 -67.269981 -57.907242
v 99.930717 -67.269981 -51.097157
v 101.321533 -67.269974 -47.931301
v 102.296463 -67.269974 -44.197521
v 102.970627 -67.269974 -39.880039
v 103.369087 -67.269974 -27.669271
v 103.222954 -67.269974 -10.909037
v 103.744492 -67.269974 -5.739377
v 104.622414 -67.269974 -0.775904
v 106.279259 -67.269974 5.723202
v 110.372101 -67.269974 18.848742
v 112.852951 -67.269974 28.498596
v 114.860809 -67.269974 40.020988
v 115.760307 -67.269974 47.511150
v 116.114342 -67.269966 52.710384
v 116.161194 -67.269966 58.660442
v 115.745514 -67.269966 64.928215
v 113.286819 -67.269966 79.852310
v 110.836433 -67.269966 89.625404
v 106.813660 -67.269966 103.479073
v -99.257744 -67.269966 96.429970
v -115.287285 -67.269974 25.795559
v -116.722908 -67.269974 20.201654
v -118.484291 -67.269974 14.937782
v -120.643684 -67.269974 9.899792
v -123.144020 -67.269974 5.111944
v -126.996864 -67.269974 -1.225822
v -138.448059 -67.269974 -18.710199
v -140.831833 -67.269974 -23.222576
v -136.349533 -67.269981 -72.860695
v -129.485886 -67.269981 -87.398354
v -124.563065 -67.269981 -101.147453
v -98.913254 -67.269981 -115.300468
v -74.351662 -67.269981 -111.184898
v -65.211586 -67.269981 -110.083122
v -53.834766 -67.269981 -109.270363
v -44.888363 -67.269981 -109.082932
v -12.188502 -67.269981 -105.487556
v -5.757563 -67.269981 -102.849915
v 3.123537 -67.269981 -98.339417
v 9.952213 -67.269981 -93.859962
v 13.193491 -67.269981 -92.609619
v 15.863581 -67.269981 -92.173424
v 66.792610 -67.269981 -95.475739
v 80.228546 -67.269981 -95.081787
v 96.113808 -67.269966 105.016151
v 84.550667 -67.269966 107.085602
v 48.250225 -67.269966 115.137535
v 24.965744 -67.269966 116.321198
v 13.726198 -67.269966 116.457520
v 7.822682 -67.269966 116.036263
v -0.601265 -67.269966 114.043732
v -40.332428 -67.269966 105.083015
v -57.330963 -67.269966 100.352295
v -64.611031 -67.269966 98.614807
v -75.503494 -67.269966 96.942474
v -80.873299 -67.269966 96.652954
v -85.434700 -67.269966 96.694839
v -91.560173 -67.269966 97.150230
v -122.288750 -67.269997 -117.336143
v -144.992371 -67.269974 -36.780033
v -145.124237 -67.269974 -44.961548
v 5.392377 -67.269981 -96.976112
v -105.502975 -67.269966 82.759743
v -144.152985 -67.269981 -50.989819
v 98.585640 -67.269981 -53.279736
v -111.741364 -67.269974 46.760986
v -109.276039 -67.269966 65.320686
v 54.561432 -67.269966 113.881302
v 69.271225 -67.269966 110.213234
v -46.144611 -67.269966 103.585449
v -98.115181 -67.269966 98.191223
v -1.484285 -67.269981 -100.511620
v -83.565063 -67.269981 -112.629883
v -123.033607 -67.269981 -108.654335
v -8.487450 -67.269981 -104.163025
v -107.889717 -67.269966 73.423698
v 42.786297 -67.269966 115.633934
v 114.970070 -67.269966 70.907417
v -69.886414 -67.269966 97.646782
v 96.224045 -67.269981 -79.852013
v -113.621613 -67.269974 34.228397
v -34.467926 -67.269966 106.180412
v -28.908171 -67.269966 106.770576
v -20.692013 -67.269966 107.257774
v -121.155975 -67.269981 -117.364334
v -116.386696 -67.269981 -117.300293
v 48.934372 -67.269981 -95.958748
v 43.183338 -67.269981 -95.956421
v -17.361618 -67.269981 -106.840050
v -36.747017 -67.269981 -109.215004
v 3.398731 -67.269966 115.189018
v 24.165518 -67.269981 -92.789391
v -134.965988 -67.269974 -13.037504
v 38.343304 -67.269981 -95.630974
v 103.015656 -67.269974 -17.418478
v -139.706009 -67.269981 -64.877457
vn 0.0538 -0.0000 -0.9985
vn -1.0000 -0.0000 0.0079
vn 0.0004 -0.0000 1.0000
vn -0.0270 -0.0000 0.9996
vn 0.9996 -0.0000 0.0282
vn -0.0204 -0.0000 0.9998
vn -0.9852 -0.0000 0.1717
vn -0.1422 -0.0000 -0.9898
vn 0.1805 -0.0000 -0.9836
vn 0.0207 -0.0000 0.9998
vn 0.9966 -0.0000 -0.0819
vn -0.1762 -0.0000 -0.9844
vn -0.9828 -0.0000 -0.1849
vn -0.9748 -0.0000 -0.2233
vn -1.0000 -0.0000 -0.0009
vn -0.9995 -0.0000 0.0318
vn 0.9989 -0.0000 0.0467
vn -0.0134 -0.0000 0.9999
vn -0.2529 -0.0000 0.9675
vn -0.0293 -0.0000 0.9996
vn 0.9852 -0.0000 -0.1713
vn 0.0712 -0.0000 -0.9975
vn 0.8706 -0.0000 -0.4920
vn 0.1539 -0.0000 -0.9881
vn 0.9637 -0.0000 0.2671
vn 0.1056 -0.0000 -0.9944
vn -0.0092 -0.0000 -1.0000
vn -0.9960 -0.0000 -0.0891
vn 0.8522 -0.0000 -0.5231
vn 0.1839 -0.0000 -0.9829
vn -0.0738 -0.0000 0.9973
vn -0.1568 -0.0000 -0.9876
vn -0.9700 -0.0000 -0.2432
vn -0.0905 -0.0000 -0.9959
vn -0.9685 -0.0000 0.2490
vn 0.9889 -0.0000 -0.1484
vn -0.9676 -0.0000 0.2526
vn -0.8961 -0.0000 0.4439
vn -0.9949 -0.0000 0.1004
vn 0.9616 -0.0000 -0.2743
vn 0.0671 -0.0000 0.9977
vn 0.8842 -0.0000 -0.4671
vn 0.1413 -0.0000 0.9900
vn 0.9810 -0.0000 -0.1938
vn 0.8864 -0.0000 -0.4629
vn 0.9206 -0.0000 -0.3906
vn -0.9690 -0.0000 0.2470
vn -0.9992 -0.0000 -0.0401
vn -0.3370 -0.0000 0.9415
vn -0.9979 -0.0000 0.0640
vn -0.9861 -0.0000 -0.1659
vn 0.9747 -0.0000 -0.2235
vn -0.9547 -0.0000 0.2977
vn 0.9561 -0.0000 0.2931
vn 0.8290 -0.0000 -0.5593
vn 0.1244 -0.0000 -0.9922
vn 0.1881 -0.0000 -0.9822
vn -0.9880 -0.0000 0.1543
vn -0.0713 -0.0000 0.9975
vn -0.9917 -0.0000 -0.1286
vn 0.2225 -0.0000 0.9749
vn -0.0385 -0.0000 -0.9993
vn -0.1197 -0.0000 0.9928
vn -0.9998 -0.0000 0.0209
vn -0.5151 -0.0000 0.8572
vn 0.9857 -0.0000 -0.1686
vn -0.0577 -0.0000 0.9983
vn -0.4335 -0.0000 0.9012
vn -0.3599 -0.0000 0.9330
vn 0.2495 -0.0000 -0.9684
vn -0.9847 -0.0000 0.1742
vn 0.9799 -0.0000 0.1996
vn -0.1714 -0.0000 0.9852
vn -0.1549 -0.0000 0.9879
vn -0.0209 -0.0000 0.9998
vn -0.4800 -0.0000 0.8773
vn 0.9577 -0.0000 -0.2879
vn 0.8389 -0.0000 -0.5442
vn 0.3292 -0.0000 -0.9443
vn -0.1138 -0.0000 0.9935
vn -0.0121 -0.0000 -0.9999
vn 0.2777 -0.0000 -0.9607
vn 0.2321 -0.0000 -0.9727
vn 0.9483 -0.0000 -0.3173
vn 0.3967 -0.0000 -0.9180
vn -0.2420 -0.0000 -0.9703
vn -0.4264 -0.0000 0.9045
vn 0.9913 -0.0000 -0.1317
vn 0.3431 -0.0000 -0.9393
vn 0.0249 -0.0000 0.9997
vn -0.1431 -0.0000 0.9897
vn 0.2753 -0.0000 -0.9614
vn -0.0741 -0.0000 -0.9972
vn 0.9291 -0.0000 0.3699
vn -0.9155 -0.0000 0.4022
vn 0.9218 -0.0000 0.3876
vn 0.9159 -0.0000 -0.4014
vn 0.0162 -0.0000 0.9999
vn 0.9956 -0.0000 0.0938
vn -0.8117 -0.0000 0.5840
vn 0.9191 -0.0000 -0.3940
vn 0.8545 -0.0000 -0.5195
vn 0.9873 -0.0000 0.1591
vn -0.1685 -0.0000 0.9857
vn -0.9977 -0.0000 0.0679
vn -0.9603 -0.0000 -0.2789
vn -0.1952 -0.0000 -0.9808
vn -0.9994 -0.0000 -0.0345
vn -0.9978 -0.0000 -0.0662
vn -0.8513 -0.0000 0.5246
vn 0.9686 -0.0000 -0.2486
vn -0.9929 -0.0000 0.1192
vn -0.2005 -0.0000 -0.9797
vn 0.1502 -0.0000 0.9887
vn -0.9778 -0.0000 0.2096
vn 0.0592 -0.0000 -0.9982
vn 0.9412 -0.0000 0.3378
vn 0.9436 -0.0000 -0.3311
vn -0.1612 -0.0000 0.9869
vn -0.5642 -0.0000 0.8256
vn 0.9043 -0.0000 0.4269
vn 0.0547 -0.0000 0.9985
vt 0.999928 0.203085
vt -0.000000 0.203085
vt -0.000000 0.196873
vt 0.999928 0.196873
vt 0.999928 0.478013
vt 0.000000 0.478013
vt 0.000000 0.471139
vt 0.999928 0.471139
vt 0.999928 0.715386
vt 0.000000 0.715386
vt 0.000000 0.708742
vt 0.999928 0.708742
vt 0.000000 0.688105
vt 0.999928 0.688105
vt 0.999928 0.005657
vt -0.000000 0.005657
vt -0.000000 0.000000
vt 0.999928 0.000000
vt 0.999928 0.747351
vt 0.000000 0.747351
vt 0.000000 0.743322
vt 0.999928 0.743322
vt 0.999928 0.506258
vt 0.000000 0.506258
vt 0.000000 0.492748
vt 0.999928 0.492748
vt 0.999928 0.418100
vt 0.000000 0.418100
vt 0.000000 0.405613
vt 0.999928 0.405613
vt 0.999928 0.215820
vt -0.000000 0.215820
vt -0.000000 0.209625
vt 0.999928 0.209625
vt 0.999928 0.672578
vt 0.000000 0.672578
vt 0.000000 0.660667
vt 0.999928 0.660667
vt 0.999928 0.009466
vt -0.000000 0.009466
vt 0.000000 0.392043
vt 0.999928 0.392043
vt 0.999928 0.456918
vt 0.000000 0.456918
vt 0.000000 0.446404
vt 0.999928 0.446404
vt 0.999928 0.629226
vt 0.000000 0.629226
vt 0.000000 0.621113
vt 0.999928 0.621113
vt 0.999928 0.579433
vt 0.000000 0.579433
vt 0.000000 0.572595
vt 0.999928 0.572595
vt 0.999928 0.560746
vt 0.000000 0.560746
vt 0.000000 0.553223
vt 0.999928 0.553223
vt 0.999928 0.913501
vt 0.000000 0.913501
vt 0.000000 0.911712
vt 0.999928 0.911712
vt 0.999928 0.910403
vt 0.000000 0.910403
vt 0.000000 0.904893
vt 0.999928 0.904893
vt 0.999928 0.789657
vt 0.000000 0.789657
vt 0.000000 0.783480
vt 0.999928 0.783480
vt 0.999928 0.014045
vt -0.000000 0.014045
vt 0.999928 0.309157
vt 0.000000 0.309157
vt 0.000000 0.302320
vt 0.999928 0.302320
vt 0.999928 0.174416
vt -0.000000 0.174416
vt -0.000000 0.167980
vt 0.999928 0.167980
vt 0.999928 0.272839
vt -0.000000 0.272839
vt -0.000000 0.267709
vt 0.999928 0.267709
vt 0.999928 0.992946
vt 0.000000 0.992946
vt 0.000000 0.985063
vt 0.999928 0.985063
vt 0.999928 0.258201
vt -0.000000 0.258201
vt -0.000000 0.251743
vt 0.999928 0.251743
vt -0.000000 0.191604
vt 0.999928 0.191604
vt 0.000000 0.616584
vt 0.999928 0.616584
vt 0.999928 0.039500
vt -0.000000 0.039500
vt -0.000000 0.031811
vt 0.999928 0.031811
vt -0.000000 0.244851
vt 0.999928 0.244851
vt 0.000000 0.896241
vt 0.999928 0.896241
vt 0.999928 0.184508
vt -0.000000 0.184508
vt -0.000000 0.176841
vt 0.999928 0.176841
vt 0.000000 0.434765
vt 0.999928 0.434765
vt 0.999928 0.349080
vt 0.000000 0.349080
vt 0.000000 0.342742
vt 0.999928 0.342742
vt 0.999928 0.517768
vt 0.000000 0.517768
vt 0.999928 0.114750
vt -0.000000 0.114750
vt -0.000000 0.100111
vt 0.999928 0.100111
vt 0.999928 0.596221
vt 0.000000 0.596221
vt 0.000000 0.591763
vt 0.999928 0.591763
vt 0.999928 0.613031
vt 0.000000 0.613031
vt 0.000000 0.609762
vt 0.999928 0.609762
vt 0.000000 0.547221
vt 0.999928 0.547221
vt 0.999928 0.157009
vt -0.000000 0.157009
vt -0.000000 0.151724
vt 0.999928 0.151724
vt 0.999928 0.720990
vt 0.000000 0.720990
vt -0.000000 0.025916
vt 0.999928 0.025915
vt 0.000000 0.737704
vt 0.999928 0.737704
vt -0.000000 0.090181
vt 0.999928 0.090181
vt 0.999928 0.070766
vt -0.000000 0.070766
vt -0.000000 0.064527
vt 0.999928 0.064527
vt -0.000000 0.020027
vt 0.999928 0.020027
vt 0.999928 0.541398
vt 0.000000 0.541398
vt 0.000000 0.533651
vt 0.999928 0.533651
vt 0.999928 0.642612
vt 0.000000 0.642612
vt 0.000000 0.635846
vt 0.999928 0.635846
vt 0.000000 0.778939
vt 0.999928 0.778939
vt 0.999928 0.586715
vt 0.000000 0.586715
vt -0.000000 0.145874
vt 0.999928 0.145874
vt 0.999928 0.937909
vt 0.000000 0.937909
vt 0.000000 0.930630
vt 0.999928 0.930630
vt 0.999928 0.055959
vt -0.000000 0.055959
vt -0.000000 0.297116
vt 0.999928 0.297116
vt 0.999928 0.845159
vt 0.000000 0.845160
vt 0.000000 0.831984
vt 0.999928 0.831984
vt 0.999928 0.463883
vt 0.000000 0.463883
vt 0.000000 0.727024
vt 0.999928 0.727024
vt 0.000000 0.322141
vt 0.999928 0.322141
vt 0.999928 0.855794
vt 0.000000 0.855794
vt 0.999928 0.654055
vt 0.000000 0.654055
vt 0.999928 0.763928
vt 0.000000 0.763928
vt 0.000000 0.760870
vt 0.999928 0.760870
vt -0.000000 0.136378
vt 0.999928 0.136378
vt 0.999928 0.812240
vt 0.000000 0.812240
vt 0.000000 0.806465
vt 0.999928 0.806465
vt 0.000000 0.775440
vt 0.999928 0.775440
vt 0.999928 0.754490
vt 0.000000 0.754490
vt 0.000000 0.750477
vt 0.999928 0.750477
vt -0.000000 0.237917
vt 0.999928 0.237917
vt 0.000000 0.921780
vt 0.999928 0.921780
vt 0.999928 0.884564
vt 0.000000 0.884564
vt 0.000000 0.866568
vt 0.999928 0.866568
vt 0.000000 0.821646
vt 0.999928 0.821646
vt 0.000000 0.769812
vt 0.999928 0.769812
vt 0.999928 0.277089
vt -0.000000 0.277089
vt 0.000000 0.798755
vt 0.999928 0.798755
vt -0.000000 0.224466
vt 0.999928 0.224466
vt 0.999928 0.083510
vt -0.000000 0.083510
vt -0.000000 0.077098
vt 0.999928 0.077098
vt 0.999928 0.285094
vt -0.000000 0.285094
vt 0.999928 0.374027
vt 0.000000 0.374027
vt 0.000000 0.356514
vt 0.999928 0.356514
vt 0.999928 0.292310
vt -0.000000 0.292310
vt 0.999928 0.947514
vt 0.000000 0.947514
vt 0.999928 0.600215
vt 0.000000 0.600215
vt 0.999928 0.976089
vt 0.000000 0.976090
vt 0.000000 0.966085
vt 0.999928 0.966085
vt -0.000000 0.162074
vt 0.999928 0.162074
vt 0.000000 0.603177
vt 0.999928 0.603177
vt 0.999928 1.000000
vt 0.000000 1.000000
vt 0.999928 0.484033
vt 0.000000 0.484033
s 0
f 81/1/1 203/2/1 204/3/1 82/4/1
f 40/5/2 162/6/2 163/7/2 41/8/2
f 114/9/3 236/10/3 235/11/3 113/12/3
f 113/12/4 235/11/4 191/13/4 69/14/4
f 17/15/5 139/16/5 209/17/5 87/18/5
f 68/19/6 190/20/6 125/21/6 3/22/6
f 37/23/7 159/24/7 160/25/7 38/26/7
f 45/27/8 167/28/8 193/29/8 71/30/8
f 80/31/9 202/32/9 227/33/9 105/34/9
f 70/35/10 192/36/10 123/37/10 1/38/10
f 86/39/11 208/40/11 139/16/11 17/15/11
f 71/30/12 193/29/12 194/41/12 72/42/12
f 104/43/13 226/44/13 165/45/13 43/46/13
f 22/47/14 144/48/14 145/49/14 23/50/14
f 4/51/15 126/52/15 153/53/15 31/54/15
f 121/55/16 243/56/16 154/57/16 32/58/16
f 15/59/17 137/60/17 207/61/17 85/62/17
f 111/63/18 233/64/18 234/65/18 112/66/18
f 115/67/19 237/68/19 185/69/19 63/70/19
f 69/14/20 191/13/20 192/36/20 70/35/20
f 14/71/21 136/72/21 208/40/21 86/39/21
f 75/73/22 197/74/22 198/75/22 76/76/22
f 46/77/23 168/78/23 132/79/23 10/80/23
f 6/81/24 128/82/24 232/83/24 110/84/24
f 90/85/25 212/86/25 138/87/25 16/88/25
f 109/89/26 231/90/26 230/91/26 108/92/26
f 82/4/27 204/3/27 205/93/27 83/94/27
f 23/50/28 145/49/28 146/95/28 24/96/28
f 119/97/29 241/98/29 175/99/29 53/100/29
f 108/92/30 230/91/30 200/101/30 78/102/30
f 112/66/31 234/65/31 134/103/31 12/104/31
f 84/105/32 206/106/32 219/107/32 97/108/32
f 43/46/33 165/45/33 166/109/33 44/110/33
f 73/111/34 195/112/34 225/113/34 103/114/34
f 36/115/35 158/116/35 159/24/35 37/23/35
f 92/117/36 214/118/36 229/119/36 107/120/36
f 28/121/37 150/122/37 151/123/37 29/124/37
f 25/125/38 147/126/38 148/127/38 26/128/38
f 32/58/39 154/57/39 155/129/39 33/130/39
f 89/131/40 211/132/40 140/133/40 18/134/40
f 120/135/41 242/136/41 236/10/41 114/9/41
f 53/100/42 175/99/42 176/137/42 54/138/42
f 3/22/43 125/21/43 240/139/43 118/140/43
f 107/120/44 229/119/44 169/141/44 47/142/44
f 50/143/45 172/144/45 173/145/45 51/146/45
f 54/138/46 176/137/46 133/147/46 11/148/46
f 34/149/47 156/150/47 157/151/47 35/152/47
f 21/153/48 143/154/48 228/155/48 106/156/48
f 63/70/49 185/69/49 223/157/49 101/158/49
f 30/159/50 152/160/50 126/52/50 4/51/50
f 106/156/51 228/155/51 144/48/51 22/47/51
f 18/134/52 140/133/52 224/161/52 102/162/52
f 35/152/53 157/151/53 158/116/53 36/115/53
f 13/163/54 135/164/54 179/165/54 57/166/54
f 52/167/55 174/168/55 241/98/55 119/97/55
f 105/34/56 227/33/56 203/2/56 81/1/56
f 76/76/57 198/75/57 239/169/57 117/170/57
f 29/124/58 151/123/58 152/160/58 30/159/58
f 60/171/59 182/172/59 183/173/59 61/174/59
f 42/175/60 164/176/60 226/44/60 104/43/60
f 118/140/61 240/139/61 124/177/61 2/178/61
f 103/114/62 225/113/62 196/179/62 74/180/62
f 59/181/63 181/182/63 182/172/63 60/171/63
f 20/183/64 142/184/64 143/154/64 21/153/64
f 65/185/65 187/186/65 210/187/65 88/188/65
f 102/162/66 224/161/66 215/189/66 93/190/66
f 116/191/67 238/192/67 131/193/67 9/194/67
f 101/158/68 223/157/68 186/195/68 64/196/68
f 66/197/69 188/198/69 189/199/69 67/200/69
f 78/102/70 200/101/70 218/201/70 96/202/70
f 33/130/71 155/129/71 156/150/71 34/149/71
f 57/166/72 179/165/72 222/203/72 100/204/72
f 58/205/73 180/206/73 221/207/73 99/208/73
f 99/208/74 221/207/74 181/182/74 59/181/74
f 61/174/75 183/173/75 184/209/75 62/210/75
f 64/196/76 186/195/76 220/211/76 98/212/76
f 11/148/77 133/147/77 136/72/77 14/71/77
f 97/108/78 219/107/78 168/78/78 46/77/78
f 7/213/79 129/214/79 128/82/79 6/81/79
f 9/194/80 131/193/80 130/215/80 8/216/80
f 74/180/81 196/179/81 197/74/81 75/73/81
f 96/202/82 218/201/82 201/217/82 79/218/82
f 79/218/83 201/217/83 202/32/83 80/31/83
f 48/219/84 170/220/84 171/221/84 49/222/84
f 5/223/85 127/224/85 129/214/85 7/213/85
f 95/225/86 217/226/86 216/227/86 94/228/86
f 98/212/87 220/211/87 187/186/87 65/185/87
f 93/190/88 215/189/88 214/118/88 92/117/88
f 77/229/89 199/230/89 127/224/89 5/223/89
f 85/62/90 207/61/90 233/64/90 111/63/90
f 12/104/91 134/103/91 180/206/91 58/205/91
f 117/170/92 239/169/92 199/230/92 77/229/92
f 83/94/93 205/93/93 206/106/93 84/105/93
f 56/231/94 178/232/94 135/164/94 13/163/94
f 27/233/95 149/234/95 150/122/95 28/121/95
f 122/235/96 244/236/96 177/237/96 55/238/96
f 10/80/97 132/79/97 141/239/97 19/240/97
f 62/210/98 184/209/98 238/192/98 116/191/98
f 100/204/99 222/203/99 137/60/99 15/59/99
f 26/128/100 148/127/100 213/241/100 91/242/100
f 49/222/101 171/221/101 172/144/101 50/143/101
f 51/146/102 173/145/102 174/168/102 52/167/102
f 87/243/103 209/244/103 212/86/103 90/85/103
f 8/216/104 130/215/104 237/68/104 115/67/104
f 39/245/105 161/246/105 162/6/105 40/5/105
f 44/110/106 166/109/106 167/28/106 45/27/106
f 94/228/107 216/227/107 195/112/107 73/111/107
f 31/54/108 153/53/108 243/56/108 121/55/108
f 41/8/109 163/7/109 164/176/109 42/175/109
f 91/242/110 213/241/110 149/234/110 27/233/110
f 47/142/111 169/141/111 170/220/111 48/219/111
f 38/26/112 160/25/112 161/246/112 39/245/112
f 72/42/113 194/41/113 217/226/113 95/225/113
f 2/178/114 124/177/114 242/136/114 120/135/114
f 24/96/115 146/95/115 147/126/115 25/125/115
f 110/84/116 232/83/116 231/90/116 109/89/116
f 16/88/117 138/87/117 244/236/117 122/235/117
f 19/240/118 141/239/118 211/132/118 89/131/118
f 67/200/119 189/199/119 190/20/119 68/19/119
f 88/188/120 210/187/120 188/198/120 66/197/120
f 55/238/121 177/237/121 178/232/121 56/231/121
f 1/38/122 123/37/122 142/184/122 20/183/122
