# Blender 4.3.2
# www.blender.org
o Cube.001
v -1.000000 -1.000000 1.666667
v -1.000000 -1.000000 -1.333333
v -1.000000 1.000000 -1.333333
v 1.000000 -1.000000 1.666667
v 1.000000 -1.000000 -1.333333
v 1.000000 1.000000 -1.333333
vn 1.0000 -0.0000 -0.0000
vn -0.0000 -0.0000 -1.0000
vn -0.0000 0.8321 0.5547
vn -0.0000 -1.0000 -0.0000
vn -1.0000 -0.0000 -0.0000
vt 0.375000 0.500000
vt 0.625000 0.500000
vt 0.375000 0.750000
vt 0.375000 0.250000
vt 0.625000 0.250000
vt 0.125000 0.750000
vt 0.125000 0.500000
s 1
f 5/1/1 6/2/1 4/3/1
f 2/4/2 3/5/2 6/2/2 5/1/2
f 6/2/3 3/5/3 1/6/3 4/3/3
f 2/7/4 5/1/4 4/3/4 1/6/4
f 2/4/5 1/6/5 3/5/5
