{
  "accessors": [
    {
      "bufferView": 2,
      "componentType": 5126,
      "count": 1839,
      "max": [
        0.4053730070590973,
        0.7205340266227722,
        0.9067410230636597
      ],
      "min": [
        -0.4053730070590973,
        -0.6429659724235535,
        -1.0
      ],
      "type": "VEC3"
    },
    {
      "bufferView": 2,
      "byteOffset": 22068,
      "componentType": 5126,
      "count": 1839,
      "max": [
        0.9999934434890747,
        0.9999938607215881,
        0.9079445600509644
      ],
      "min": [
        -0.9999934434890747,
        -0.9999935030937195,
        -1.0
      ],
      "type": "VEC3"
    },
    {
      "bufferView": 1,
      "componentType": 5126,
      "count": 1839,
      "max": [
        0.9953709840774536,
        0.9888949990272522
      ],
      "min": [
        0.005236649885773659,
        0.008684989996254444
      ],
      "type": "VEC2"
    },
    {
      "bufferView": 0,
      "componentType": 5125,
      "count": 9000,
      "type": "SCALAR"
    },
    {
      "bufferView": 2,
      "byteOffset": 44136,
      "componentType": 5126,
      "count": 5200,
      "max": [
        0.38604000210762024,
        0.7181569933891296,
        1.0
      ],
      "min": [
        -0.38604000210762024,
        -0.7205340266227722,
        -0.826820969581604
      ],
      "type": "VEC3"
    },
    {
      "bufferView": 2,
      "byteOffset": 106536,
      "componentType": 5126,
      "count": 5200,
      "max": [
        1.0,
        0.9999402761459351,
        0.9996445775032043
      ],
      "min": [
        -1.0,
        -1.0,
        -1.0
      ],
      "type": "VEC3"
    },
    {
      "bufferView": 1,
      "byteOffset": 14712,
      "componentType": 5126,
      "count": 5200,
      "max": [
        0.994799017906189,
        0.9818499684333801
      ],
      "min": [
        0.004612599965184927,
        0.005373429972678423
      ],
      "type": "VEC2"
    },
    {
      "bufferView": 0,
      "byteOffset": 36000,
      "componentType": 5125,
      "count": 25350,
      "type": "SCALAR"
    }
  ],
  "asset": {
    "extras": {
      "author": "Cameraman (https://sketchfab.com/wannoischool01)",
      "license": "CC-BY-4.0 (http://creativecommons.org/licenses/by/4.0/)",
      "source": "https://sketchfab.com/3d-models/skibidi-toilet-33e9d67ec299439ab8e51f1c7d626282",
      "title": "Skibidi Toilet"
    },
    "generator": "Sketchfab-15.27.0",
    "version": "2.0"
  },
  "bufferViews": [
    {
      "buffer": 0,
      "byteLength": 137400,
      "name": "floatBufferViews",
      "target": 34963
    },
    {
      "buffer": 0,
      "byteLength": 56312,
      "byteOffset": 137400,
      "byteStride": 8,
      "name": "floatBufferViews",
      "target": 34962
    },
    {
      "buffer": 0,
      "byteLength": 168936,
      "byteOffset": 193712,
      "byteStride": 12,
      "name": "floatBufferViews",
      "target": 34962
    }
  ],
  "buffers": [
    {
      "byteLength": 362648,
      "uri": "scene.bin"
    }
  ],
  "materials": [
    {
      "doubleSided": true,
      "name": "02___Default",
      "pbrMetallicRoughness": {
        "baseColorFactor": [
          0.588235,
          0.588235,
          0.588235,
          1.0
        ],
        "metallicFactor": 0.0,
        "roughnessFactor": 0.5
      }
    },
    {
      "doubleSided": true,
      "name": "01___Default",
      "pbrMetallicRoughness": {
        "baseColorFactor": [
          0.588235,
          0.588235,
          0.588235,
          1.0
        ],
        "metallicFactor": 0.0,
        "roughnessFactor": 0.5
      }
    }
  ],
  "meshes": [
    {
      "name": "Object_0",
      "primitives": [
        {
          "attributes": {
            "NORMAL": 1,
            "POSITION": 0,
            "TEXCOORD_0": 2
          },
          "indices": 3,
          "material": 0,
          "mode": 4
        }
      ]
    },
    {
      "name": "Object_1",
      "primitives": [
        {
          "attributes": {
            "NORMAL": 5,
            "POSITION": 4,
            "TEXCOORD_0": 6
          },
          "indices": 7,
          "material": 1,
          "mode": 4
        }
      ]
    }
  ],
  "nodes": [
    {
      "children": [
        1
      ],
      "matrix": [
        1.0,
        0.0,
        0.0,
        0.0,
        0.0,
        2.220446049250313e-16,
        -1.0,
        0.0,
        0.0,
        1.0,
        2.220446049250313e-16,
        0.0,
        0.0,
        0.0,
        0.0,
        1.0
      ],
      "name": "Sketchfab_model"
    },
    {
      "children": [
        2
      ],
      "name": "root"
    },
    {
      "children": [
        3,
        5
      ],
      "matrix": [
        1.0,
        0.0,
        0.0,
        0.0,
        0.0,
        2.220446049250313e-16,
        1.0,
        0.0,
        0.0,
        -1.0,
        2.220446049250313e-16,
        0.0,
        0.0,
        0.0,
        0.0,
        1.0
      ],
      "name": "GLTF_SceneRootNode"
    },
    {
      "children": [
        4
      ],
      "matrix": [
        0.3883539140224457,
        0.0,
        0.0,
        0.0,
        0.0,
        3.2735786303772816e-08,
        0.38835391402244435,
        0.0,
        0.0,
        -0.38835391402244435,
        3.2735786303772816e-08,
        0.0,
        -0.01132099237293005,
        0.30369916558265686,
        -0.0509558841586113,
        1.0
      ],
      "name": "Seat_LP_30"
    },
    {
      "mesh": 0,
      "name": "Object_4"
    },
    {
      "children": [
        6
      ],
      "matrix": [
        0.3883539140224457,
        0.0,
        0.0,
        0.0,
        0.0,
        3.2735786303772816e-08,
        0.38835391402244435,
        0.0,
        0.0,
        -0.38835391402244435,
        3.2735786303772816e-08,
        0.0,
        -0.01132099237293005,
        0.30369916558265686,
        -0.0509558841586113,
        1.0
      ],
      "name": "Base_LP_31"
    },
    {
      "mesh": 1,
      "name": "Object_6"
    }
  ],
  "scene": 0,
  "scenes": [
    {
      "name": "Sketchfab_Scene",
      "nodes": [
        0
      ]
    }
  ]
}
