# Blender 4.3.2
# www.blender.org
o water_collision_4
v 13.731546 -16.064316 -55.984879
v -1.120680 -15.377335 -62.162384
v 12.915211 -1.297062 -59.637115
v -1.937016 -0.610081 -65.814621
v -35.812683 -14.741920 -14.470428
v -18.452393 -14.588913 -16.927383
v -19.268728 0.178341 -20.579620
v -36.629017 0.025333 -18.122665
vn 0.3679 -0.2040 -0.9072
vn -0.0178 -0.9998 0.0106
vn 0.1337 0.2449 0.9603
vn -0.7957 -0.1865 -0.5763
vn 0.7605 0.1952 0.6193
vn 0.0178 0.9998 -0.0106
vt 0.177869 0.882934
vt 0.183295 0.321742
vt 0.405608 0.001910
vt 0.397534 0.612210
s 0
f 1/1/1 2/2/1 4/2/1 3/1/1
f 5/3/2 2/2/2 1/1/2 6/4/2
f 8/3/3 5/3/3 6/4/3 7/4/3
f 4/2/4 2/2/4 5/3/4 8/3/4
f 1/1/5 3/1/5 7/4/5 6/4/5
f 3/1/6 4/2/6 8/3/6 7/4/6
