# Blender 4.3.2
# www.blender.org
o water_surface
v -27.944326 35.446774 104.240097
v -13.970409 35.346672 108.217209
v -32.559055 35.159397 79.697372
v -6.919687 35.119686 90.685371
v -33.637264 5.503090 7.070992
v -18.738739 5.553875 1.229744
v -36.629017 0.799706 -18.122665
v -19.268728 1.377056 -20.579620
v -9.642435 0.473846 -53.011093
v 3.975246 0.269737 -45.816696
v 12.484247 -3.787113 -97.343750
v 23.621119 -4.368843 -97.451630
v 2.795950 -2.028194 -76.260223
v 19.725401 -3.233128 -73.488632
v -31.760155 35.522968 62.138962
v -32.841770 19.081747 37.349289
v -31.271767 31.085403 45.882835
v -7.765809 20.351574 31.902714
v -5.236016 34.908218 63.092239
v -5.722018 31.763737 42.392536
v -34.500210 11.708277 29.188343
v -34.216171 7.778805 19.081467
v -14.867064 7.766399 10.846390
v -10.679897 11.900644 20.209305
v -31.507786 35.216648 92.508400
v -9.366819 35.211483 101.517342
v -35.150627 2.949978 -3.505051
v -19.576412 3.366413 -8.519485
v -21.692694 0.789307 -35.959625
v -6.681075 0.762615 -32.941284
v -1.937016 -0.610081 -65.814621
v 23.673048 -4.133160 -87.500305
v 7.187555 -3.168087 -87.908691
v 12.915211 -1.297062 -59.637115
v -6.602180 26.555359 36.670551
v -31.875275 25.362652 40.845669
v -5.260318 34.688389 50.735790
v -31.283978 34.493195 53.391956
v -32.380688 35.101372 70.504829
v -5.696585 35.056206 77.186081
v -12.611046 9.336687 15.117920
v -34.623367 9.373024 24.243973
v -33.823887 14.880939 33.395821
v -9.097955 15.687410 25.923946
v -33.552132 6.733713 13.964775
v -17.218447 6.745420 7.017075
vn 0.0054 0.9999 -0.0101
vn 0.0066 0.9999 -0.0126
vn 0.0034 1.0000 -0.0057
vn 0.0034 1.0000 -0.0055
vn 0.0065 1.0000 0.0027
vn 0.0074 1.0000 0.0049
vn 0.0084 0.9997 -0.0227
vn 0.0084 0.9997 -0.0225
vn -0.0844 0.9763 -0.1993
vn -0.0756 0.9812 -0.1778
vn -0.0796 0.9791 -0.1872
vn -0.0819 0.9776 -0.1937
vn -0.0336 0.9965 -0.0771
vn -0.0491 0.9922 -0.1145
vn 0.0042 0.9997 -0.0226
vn -0.0055 0.9996 -0.0287
vn 0.0393 0.9984 -0.0412
vn 0.0357 0.9986 -0.0377
vn 0.0769 0.9943 -0.0734
vn 0.0626 0.9972 -0.0415
vn 0.0650 0.9968 -0.0464
vn 0.0793 0.9937 -0.0791
vn 0.0562 0.9980 -0.0288
vn 0.0742 0.9940 -0.0803
vn 0.0724 0.9943 -0.0778
vn -0.1893 0.6620 -0.7252
vn -0.1897 0.6685 -0.7191
vn -0.1578 0.6348 -0.7564
vn -0.1561 0.6394 -0.7529
vn -0.0962 0.8368 -0.5390
vn -0.0979 0.8317 -0.5465
vn -0.0246 0.9785 -0.2048
vn -0.0287 0.9742 -0.2240
vn -0.1068 0.9611 -0.2545
vn -0.0817 0.9778 -0.1931
vn -0.0836 0.9768 -0.1973
vn -0.1109 0.9578 -0.2650
vn -0.1484 0.9191 -0.3649
vn -0.1435 0.9251 -0.3516
vn -0.1834 0.8579 -0.4800
vn -0.1805 0.8646 -0.4690
vn -0.1962 0.7904 -0.5804
vn -0.1961 0.7887 -0.5826
vn 0.0098 0.9998 -0.0193
vt 0.921572 0.020021
vt 0.967796 0.780730
vt 0.917848 0.882006
vt 0.861735 0.001909
vt 0.855248 0.944383
vt 0.818980 0.021510
vt 0.789732 0.980974
vt 0.780158 0.055362
vt 0.499156 0.599019
vt 0.453612 0.583920
vt 0.473937 0.032321
vt 0.523460 0.069834
vt 0.397534 0.612210
vt 0.405608 0.001910
vt 0.330018 0.690855
vt 0.348922 0.174399
vt 0.254110 0.821140
vt 0.252718 0.282511
vt 0.105962 0.877706
vt 0.039388 0.780533
vt 0.072241 0.259105
vt 0.129913 0.305220
vt -0.001909 0.622311
vt 0.021882 0.276096
vt 0.177869 0.882934
vt 0.183295 0.321742
vt 0.644059 0.937912
vt 0.664556 0.053608
vt 0.681018 0.082301
vt 0.666478 0.971647
vt 0.704582 0.096069
vt 0.693284 0.994087
vt 0.739534 0.084723
vt 0.732210 0.998091
vt 0.544670 0.720348
vt 0.526389 0.643736
vt 0.555567 0.062785
vt 0.579255 0.032136
vt 0.603207 0.010399
vt 0.564990 0.792982
vt 0.626247 0.007513
vt 0.589064 0.853071
vt 0.615971 0.900049
vt 0.645963 0.025032
vt 0.976872 0.127502
vt 0.998091 0.610096
s 1
f 25/1/1 26/2/2 4/3/3 3/4/4
f 4/3/3 40/5/5 39/6/6 3/4/4
f 39/6/6 40/5/5 19/7/7 15/8/8
f 6/9/9 28/10/10 27/11/11 5/12/12
f 27/11/11 28/10/10 8/13/13 7/14/14
f 8/13/13 30/15/15 29/16/16 7/14/14
f 29/16/16 30/15/15 10/17/17 9/18/18
f 14/19/19 32/20/20 33/21/21 13/22/22
f 33/21/21 32/20/20 12/23/23 11/24/23
f 10/17/17 34/25/24 31/26/25 9/18/18
f 31/26/25 34/25/24 14/19/19 13/22/22
f 18/27/26 16/28/27 36/29/28 35/30/29
f 35/30/29 36/29/28 17/31/30 20/32/31
f 17/31/30 38/33/32 37/34/33 20/32/31
f 37/34/33 38/33/32 15/8/8 19/7/7
f 23/35/34 46/36/35 45/37/36 22/38/37
f 45/37/36 46/36/35 6/9/9 5/12/12
f 23/35/34 22/38/37 42/39/38 41/40/39
f 41/40/39 42/39/38 21/41/40 24/42/41
f 18/27/26 44/43/42 43/44/43 16/28/27
f 43/44/43 44/43/42 24/42/41 21/41/40
f 1/45/44 2/46/44 26/2/2 25/1/1
