# Blender 4.3.2
# www.blender.org
o water_collision_3
v -9.097955 13.027317 27.129734
v -33.823887 12.175955 34.643524
v -6.949473 4.899771 36.729996
v -32.025436 3.441444 42.219124
v -35.812683 -14.741920 -14.470428
v -18.452393 -14.588913 -16.927383
v -19.268728 0.178341 -20.579620
v -36.629017 0.025333 -18.122665
vn 0.9776 0.0047 -0.2105
vn -0.9942 -0.0724 0.0799
vn 0.0940 -0.9461 0.3100
vn 0.1431 0.7225 0.6764
vn -0.1337 -0.2449 -0.9603
vn -0.0779 0.9698 -0.2312
vt 0.644059 0.937912
vt 0.397534 0.612210
vt 0.615971 0.900049
vt 0.405608 0.001910
vt 0.664556 0.053608
vt 0.645963 0.025032
s 0
f 3/1/1 6/2/1 7/2/1 1/3/1
f 5/4/2 4/5/2 2/6/2 8/4/2
f 5/4/3 6/2/3 3/1/3 4/5/3
f 2/6/4 4/5/4 3/1/4 1/3/4
f 8/4/5 7/2/5 6/2/5 5/4/5
f 1/3/6 7/2/6 8/4/6 2/6/6
